<svg width="25" height="24" viewBox="0 0 25 24" fill="none" xmlns="http://www.w3.org/2000/svg">
<path d="M23.9468 12.8684C24.4068 13.3284 24.7135 13.9418 24.7135 14.5551C24.7135 15.2196 24.4068 15.8329 23.9468 16.2929C23.4868 16.7529 22.8735 17.0085 22.2601 17.0085H2.633C1.96854 17.0085 1.3552 16.7529 0.895185 16.2929C0.435174 15.8329 0.179613 15.2196 0.179613 14.5551C0.179613 13.9418 0.435174 13.3284 0.895185 12.8684C1.3552 12.4084 1.96854 12.1017 2.633 12.1017H22.2601C22.8735 12.1017 23.4868 12.4084 23.9468 12.8684ZM23.6402 18.8997C23.7935 19.053 23.8957 19.2574 23.8957 19.4619V20.2797C23.8957 21.1486 23.5379 22.0175 22.9246 22.6309C22.3112 23.2442 21.4423 23.5509 20.6245 23.5509H4.2686C3.39969 23.5509 2.53078 23.2442 1.91743 22.6309C1.30408 22.0175 0.99741 21.1486 0.99741 20.2797V19.4619C0.99741 19.2574 1.04852 19.053 1.20186 18.8997C1.3552 18.7463 1.55964 18.6441 1.81521 18.6441H23.0779C23.2824 18.6441 23.4868 18.7463 23.6402 18.8997ZM1.91743 10.3128C1.66187 10.2106 1.50853 10.0572 1.30408 9.85278C1.15075 9.64833 1.04852 9.44389 0.99741 9.18832C0.946297 8.93276 0.946297 8.6772 0.99741 8.42164C2.12188 4.02598 6.82421 0.652572 12.4466 0.652572C18.0178 0.652572 22.7201 4.02598 23.8446 8.42164C23.8957 8.6772 23.8957 8.93276 23.8446 9.18832C23.7935 9.44389 23.6913 9.64833 23.5379 9.85278C23.3335 10.0572 23.1801 10.2106 22.9246 10.3128C22.7201 10.415 22.4646 10.4661 22.209 10.4661H2.633C2.37744 10.4661 2.12188 10.415 1.91743 10.3128ZM18.3756 4.99712C18.2223 5.15045 18.1711 5.3549 18.1711 5.55935C18.1711 5.7638 18.1711 5.91714 18.2734 6.01936C18.3756 6.1727 18.4778 6.27492 18.6311 6.32604C18.7845 6.37715 18.9889 6.42826 19.1423 6.37715C19.2956 6.37715 19.4489 6.27492 19.5512 6.1727C19.6534 6.07047 19.7556 5.91714 19.7556 5.7638C19.8067 5.55935 19.7556 5.40601 19.7045 5.25268C19.6534 5.09934 19.5512 4.99712 19.3978 4.89489C19.2956 4.79267 19.1423 4.74155 18.9889 4.74155C18.7334 4.74155 18.5289 4.84378 18.3756 4.99712ZM11.8332 3.36152C11.6799 3.51486 11.6288 3.71931 11.6288 3.92376C11.6288 4.12821 11.6288 4.28154 11.731 4.38377C11.8332 4.53711 11.9354 4.63933 12.0888 4.69044C12.2421 4.74155 12.4466 4.79267 12.5999 4.74155C12.7532 4.74155 12.9066 4.63933 13.0088 4.53711C13.111 4.43488 13.2132 4.28154 13.2132 4.12821C13.2644 3.97487 13.2132 3.77042 13.1621 3.61708C13.111 3.46375 13.0088 3.36152 12.8555 3.2593C12.7532 3.15707 12.5999 3.10596 12.4466 3.10596C12.191 3.10596 11.9866 3.20819 11.8332 3.36152ZM5.29084 4.99712C5.1375 5.15045 5.08639 5.3549 5.08639 5.55935C5.08639 5.7638 5.08639 5.91714 5.18862 6.01936C5.29084 6.1727 5.39307 6.27492 5.5464 6.32604C5.69974 6.37715 5.90419 6.42826 6.05753 6.37715C6.21086 6.37715 6.3642 6.27492 6.46642 6.1727C6.56865 6.07047 6.67087 5.91714 6.67087 5.7638C6.72199 5.55935 6.67087 5.40601 6.61976 5.25268C6.56865 5.09934 6.46642 4.99712 6.31309 4.89489C6.21086 4.79267 6.05753 4.74155 5.90419 4.74155C5.64863 4.74155 5.44418 4.84378 5.29084 4.99712Z" fill="#FFA726"/>
</svg>
