<svg width="611" height="334" viewBox="0 0 611 334" fill="none" xmlns="http://www.w3.org/2000/svg">
<path d="M82.163 174.086H62.6091C61.9215 174.086 61.2621 174.36 60.7759 174.846C60.2897 175.332 60.0166 175.991 60.0166 176.679V185.26C60.0166 185.948 60.2897 186.607 60.7759 187.093C61.2621 187.579 61.9215 187.852 62.6091 187.852H65.8494V200.71H78.9226V187.852H82.163C82.8506 187.852 83.51 187.579 83.9962 187.093C84.4823 186.607 84.7555 185.948 84.7555 185.26V176.679C84.7555 175.991 84.4823 175.332 83.9962 174.846C83.51 174.36 82.8506 174.086 82.163 174.086Z" fill="#FFA726" fill-opacity="0.5"/>
<path d="M101.749 252.625C89.7733 235.104 83.6512 214.243 84.2595 193.03C84.2704 192.541 84.1115 192.063 83.8098 191.677C83.5082 191.292 83.0823 191.022 82.6046 190.915V187.207H61.953V190.863H61.6684C61.3772 190.864 61.0891 190.924 60.8222 191.041C60.5554 191.158 60.3154 191.328 60.1174 191.542C59.9193 191.755 59.7674 192.007 59.6712 192.282C59.5749 192.557 59.5364 192.849 59.558 193.139C61.185 215.815 55.6911 236.151 43.0764 254.146C42.3505 255.18 41.9796 256.422 42.0195 257.684L44.2776 327.526C44.3319 329.083 44.9858 330.56 46.1029 331.647C47.2199 332.735 48.7138 333.348 50.2727 333.361H96.9835C98.5602 333.348 100.07 332.72 101.19 331.611C102.311 330.502 102.954 328.999 102.982 327.423L103.852 259.613C103.878 257.124 103.144 254.686 101.749 252.625Z" fill="#FFA726" fill-opacity="0.5"/>
<path opacity="0.2" d="M78.0867 176.883C78.0867 178.366 77.4974 179.788 76.4485 180.837C75.3996 181.886 73.9769 182.475 72.4935 182.475C71.0101 182.475 69.5875 181.886 68.5386 180.837C67.4897 179.788 66.9004 178.366 66.9004 176.883" fill="#121212"/>
<path d="M94.3538 275.824H88.6975C88.1575 272.321 86.3812 269.126 83.69 266.818C80.9989 264.51 77.5704 263.241 74.025 263.241C70.4795 263.241 67.0511 264.51 64.3599 266.818C61.6687 269.126 59.8925 272.321 59.3524 275.824H53.6958C53.0939 275.824 52.4992 275.954 51.9524 276.206C51.4055 276.457 50.9195 276.824 50.5276 277.28C50.1358 277.737 49.8473 278.273 49.682 278.852C49.5167 279.43 49.4785 280.038 49.57 280.632L55.714 320.563H90.9938L98.4566 280.767C98.5696 280.164 98.5484 279.544 98.3945 278.95C98.2406 278.357 97.9577 277.804 97.566 277.332C97.1743 276.86 96.6834 276.481 96.1282 276.22C95.573 275.959 94.9672 275.824 94.3538 275.824Z" fill="#FFA726" fill-opacity="0.5"/>
<path d="M569.683 211.642L568.326 265.863L566.646 333.1H509.451L507.482 254.324L506.414 211.642H569.683Z" fill="#FAFAFA"/>
<path d="M541.844 182.795H533.746V290.084H541.844V182.795Z" fill="#FFA726" fill-opacity="0.5"/>
<path d="M565.633 252.497L564.102 329.563H511.969L510.175 239.272C514.872 237.953 519.79 237.615 524.623 238.28C529.456 238.945 534.1 240.597 538.266 243.135C546.977 248.286 556.762 251.059 565.633 252.497Z" fill="#FFA726" fill-opacity="0.5"/>
<path d="M524.875 261.173H517.444V268.603H524.875V261.173Z" fill="#FAFAFA"/>
<path d="M529.937 245.99H522.506V253.42H529.937V245.99Z" fill="#FAFAFA"/>
<path d="M545.894 256.501L539.926 252.075L535.499 258.043L541.468 262.469L545.894 256.501Z" fill="#FAFAFA"/>
<path d="M559.32 269.666L553.352 265.24L548.925 271.207L554.894 275.633L559.32 269.666Z" fill="#FAFAFA"/>
<path d="M536.544 277.257L530.575 272.831L526.149 278.799L532.117 283.225L536.544 277.257Z" fill="#FAFAFA"/>
<path d="M553.992 243.019C554.831 243.019 555.511 242.339 555.511 241.5C555.511 240.662 554.831 239.982 553.992 239.982C553.153 239.982 552.474 240.662 552.474 241.5C552.474 242.339 553.153 243.019 553.992 243.019Z" fill="#FFA726" fill-opacity="0.5"/>
<path d="M523.117 232.897C523.956 232.897 524.635 232.217 524.635 231.379C524.635 230.54 523.956 229.86 523.117 229.86C522.278 229.86 521.599 230.54 521.599 231.379C521.599 232.217 522.278 232.897 523.117 232.897Z" fill="#FFA726" fill-opacity="0.5"/>
<path d="M548.931 222.269C549.769 222.269 550.449 221.59 550.449 220.751C550.449 219.913 549.769 219.233 548.931 219.233C548.092 219.233 547.412 219.913 547.412 220.751C547.412 221.59 548.092 222.269 548.931 222.269Z" fill="#FFA726" fill-opacity="0.5"/>
<path d="M305.85 332.637C397.718 332.637 472.192 258.174 472.192 166.319C472.192 74.4634 397.718 0 305.85 0C213.982 0 139.508 74.4634 139.508 166.319C139.508 258.174 213.982 332.637 305.85 332.637Z" fill="#FFA726" fill-opacity="0.5"/>
<path opacity="0.2" d="M305.85 287.715C277.76 287.715 250.54 277.976 228.826 260.159C207.113 242.342 192.25 217.548 186.77 190.002C181.291 162.456 185.533 133.863 198.774 109.093C212.016 84.3242 233.437 64.9119 259.388 54.1642C285.34 43.4164 314.215 41.9981 341.095 50.151C367.975 58.3038 391.196 75.5234 406.802 98.8757C422.407 122.228 429.432 150.268 426.679 178.218C423.925 206.169 411.565 232.3 391.702 252.159C380.454 263.467 367.075 272.432 352.338 278.535C337.601 284.638 321.8 287.759 305.85 287.715ZM305.85 52.409C243.031 52.409 191.924 103.509 191.924 166.319C191.924 229.128 243.031 280.228 305.85 280.228C368.668 280.228 419.775 229.128 419.775 166.319C419.775 103.509 368.668 52.409 305.85 52.409Z" fill="#121212"/>
<path d="M305.849 283.972C370.836 283.972 423.519 231.296 423.519 166.319C423.519 101.341 370.836 48.6655 305.849 48.6655C240.862 48.6655 188.18 101.341 188.18 166.319C188.18 231.296 240.862 283.972 305.849 283.972Z" fill="#FFA726" fill-opacity="0.5"/>
<path d="M218.341 119.274C217.449 117.527 216.91 115.62 216.755 113.664C216.6 111.708 216.832 109.741 217.438 107.874C218.043 106.008 219.011 104.279 220.286 102.787C221.56 101.295 223.116 100.069 224.865 99.1785C226.614 98.2881 228.521 97.7511 230.477 97.5981C232.434 97.4451 234.401 97.6791 236.267 98.2869C238.133 98.8946 239.861 99.8641 241.352 101.14C242.843 102.416 244.068 103.973 244.956 105.722L278.201 170.995C279.093 172.743 279.633 174.649 279.788 176.605C279.943 178.561 279.711 180.529 279.105 182.395C278.499 184.261 277.531 185.99 276.257 187.482C274.982 188.974 273.426 190.201 271.677 191.091C269.929 191.981 268.022 192.519 266.065 192.672C264.109 192.825 262.141 192.59 260.275 191.983C258.409 191.375 256.681 190.405 255.191 189.13C253.7 187.854 252.475 186.297 251.586 184.547L218.341 119.274Z" fill="#F4511E"/>
<path opacity="0.2" d="M222.049 126.555L220.515 123.542C228.172 117.593 237.164 113.218 247.13 109.99L248.664 113.003C237.878 115.249 228.702 119.404 222.049 126.555Z" fill="#121212"/>
<path opacity="0.2" d="M229.21 140.613L227.676 137.601C235.333 131.652 244.325 127.276 254.291 124.049L255.825 127.062C245.04 129.307 235.863 133.463 229.21 140.613Z" fill="#121212"/>
<path opacity="0.2" d="M236.37 154.672L234.836 151.659C242.493 145.71 251.486 141.335 261.451 138.108L262.985 141.12C252.2 143.366 243.024 147.522 236.37 154.672Z" fill="#121212"/>
<path opacity="0.2" d="M243.53 168.731L241.996 165.718C249.654 159.769 258.646 155.394 268.611 152.167L270.146 155.179C259.36 157.425 250.184 161.581 243.53 168.731Z" fill="#121212"/>
<path opacity="0.2" d="M250.691 182.79L249.156 179.777C256.814 173.828 265.806 169.453 275.771 166.225L277.306 169.238C266.52 171.484 257.344 175.64 250.691 182.79Z" fill="#121212"/>
<path d="M193.4 143.71C192.508 141.962 191.969 140.056 191.814 138.1C191.659 136.144 191.891 134.177 192.497 132.311C193.103 130.445 194.071 128.716 195.345 127.224C196.62 125.732 198.176 124.506 199.925 123.616C201.673 122.725 203.58 122.188 205.536 122.035C207.493 121.882 209.46 122.116 211.326 122.724C213.192 123.331 214.92 124.301 216.411 125.576C217.902 126.852 219.126 128.409 220.015 130.158L253.26 195.431C255.052 198.96 255.371 203.055 254.145 206.818C252.919 210.581 250.249 213.703 246.722 215.499C243.195 217.295 239.099 217.617 235.335 216.395C231.57 215.174 228.445 212.507 226.645 208.983L193.4 143.71Z" fill="#F4511E"/>
<path opacity="0.2" d="M197.109 150.99L195.574 147.978C203.232 142.029 212.224 137.653 222.189 134.426L223.724 137.439C212.938 139.684 203.762 143.84 197.109 150.99Z" fill="#121212"/>
<path opacity="0.2" d="M204.269 165.049L202.734 162.037C210.392 156.087 219.384 151.712 229.349 148.485L230.884 151.497C220.098 153.743 210.922 157.899 204.269 165.049Z" fill="#121212"/>
<path opacity="0.2" d="M211.429 179.108L209.895 176.095C217.552 170.146 226.544 165.771 236.51 162.544L238.044 165.556C227.258 167.802 218.082 171.958 211.429 179.108Z" fill="#121212"/>
<path opacity="0.2" d="M218.589 193.167L217.055 190.154C224.712 184.205 233.704 179.83 243.67 176.603L245.204 179.615C234.418 181.861 225.242 186.017 218.589 193.167Z" fill="#121212"/>
<path opacity="0.2" d="M225.75 207.226L224.216 204.213C231.873 198.264 240.865 193.889 250.831 190.661L252.365 193.674C241.58 195.92 232.404 200.076 225.75 207.226Z" fill="#121212"/>
<path d="M384.475 170.062L384.58 170.062C388.16 170.092 391.667 169.043 394.642 167.05C397.617 165.057 399.923 162.215 401.258 158.892C404.003 151.953 405.387 144.55 405.333 137.088C405.147 105.503 379.447 79.5911 347.86 79.1542C334.408 78.9659 321.304 83.4345 310.771 91.8025C300.237 100.171 292.922 111.923 290.065 125.068C287.207 138.213 288.984 151.941 295.094 163.926C301.204 175.91 311.27 185.414 323.587 190.825C326.842 192.266 330.457 192.69 333.957 192.041C337.457 191.392 340.679 189.7 343.201 187.188C348.61 181.752 355.042 177.439 362.126 174.5C369.209 171.561 376.805 170.052 384.475 170.062Z" fill="#FAFAFA"/>
<path d="M354.522 152.414C365.156 152.414 373.777 143.795 373.777 133.162C373.777 122.529 365.156 113.91 354.522 113.91C343.887 113.91 335.267 122.529 335.267 133.162C335.267 143.795 343.887 152.414 354.522 152.414Z" fill="#FFC107"/>
<path d="M312.674 130.997C313.926 130.997 314.942 129.982 314.942 128.729C314.942 127.476 313.926 126.461 312.674 126.461C311.421 126.461 310.405 127.476 310.405 128.729C310.405 129.982 311.421 130.997 312.674 130.997Z" fill="#FFA726" fill-opacity="0.5"/>
<path d="M237.794 133.136C239.046 133.136 240.062 132.121 240.062 130.868C240.062 129.615 239.046 128.6 237.794 128.6C236.541 128.6 235.525 129.615 235.525 130.868C235.525 132.121 236.541 133.136 237.794 133.136Z" fill="#FFA726" fill-opacity="0.5"/>
<path d="M324.763 107.492C326.016 107.492 327.032 106.477 327.032 105.224C327.032 103.971 326.016 102.956 324.763 102.956C323.511 102.956 322.495 103.971 322.495 105.224C322.495 106.477 323.511 107.492 324.763 107.492Z" fill="#FFA726" fill-opacity="0.5"/>
<path d="M324.699 172.865C325.952 172.865 326.967 171.849 326.967 170.597C326.967 169.344 325.952 168.329 324.699 168.329C323.446 168.329 322.431 169.344 322.431 170.597C322.431 171.849 323.446 172.865 324.699 172.865Z" fill="#FFA726" fill-opacity="0.5"/>
<path d="M369.627 102.808C370.879 102.808 371.895 101.792 371.895 100.54C371.895 99.2873 370.879 98.2719 369.627 98.2719C368.374 98.2719 367.358 99.2873 367.358 100.54C367.358 101.792 368.374 102.808 369.627 102.808Z" fill="#FFA726" fill-opacity="0.5"/>
<path d="M223.075 164.843C224.328 164.843 225.343 163.828 225.343 162.575C225.343 161.322 224.328 160.307 223.075 160.307C221.822 160.307 220.807 161.322 220.807 162.575C220.807 163.828 221.822 164.843 223.075 164.843Z" fill="#FFA726" fill-opacity="0.5"/>
<path d="M239.656 197.465C240.909 197.465 241.924 196.45 241.924 195.197C241.924 193.945 240.909 192.929 239.656 192.929C238.403 192.929 237.388 193.945 237.388 195.197C237.388 196.45 238.403 197.465 239.656 197.465Z" fill="#FFA726" fill-opacity="0.5"/>
<path d="M343.824 208.032C348.551 208.032 352.382 204.201 352.382 199.475C352.382 194.75 348.551 190.919 343.824 190.919C339.098 190.919 335.267 194.75 335.267 199.475C335.267 204.201 339.098 208.032 343.824 208.032Z" fill="#F4511E"/>
<path opacity="0.2" d="M350.243 200.01C350.243 201.712 349.567 203.344 348.363 204.548C347.159 205.751 345.527 206.428 343.825 206.428C342.122 206.428 340.49 205.751 339.286 204.548C338.082 203.344 337.406 201.712 337.406 200.01" fill="#121212"/>
<path opacity="0.2" d="M337.406 198.941C337.406 197.239 338.082 195.606 339.286 194.403C340.49 193.199 342.122 192.523 343.825 192.523C345.527 192.523 347.159 193.199 348.363 194.403C349.567 195.606 350.243 197.239 350.243 198.941" fill="#121212"/>
<path d="M340.616 197.336C340.911 197.336 341.151 196.977 341.151 196.534C341.151 196.091 340.911 195.732 340.616 195.732C340.321 195.732 340.081 196.091 340.081 196.534C340.081 196.977 340.321 197.336 340.616 197.336Z" fill="#F4511E"/>
<path d="M343.825 196.267C344.12 196.267 344.36 195.907 344.36 195.464C344.36 195.021 344.12 194.662 343.825 194.662C343.53 194.662 343.29 195.021 343.29 195.464C343.29 195.907 343.53 196.267 343.825 196.267Z" fill="#F4511E"/>
<path d="M343.825 203.219C344.12 203.219 344.36 202.86 344.36 202.417C344.36 201.974 344.12 201.615 343.825 201.615C343.53 201.615 343.29 201.974 343.29 202.417C343.29 202.86 343.53 203.219 343.825 203.219Z" fill="#F4511E"/>
<path d="M347.034 198.941C347.329 198.941 347.569 198.581 347.569 198.138C347.569 197.695 347.329 197.336 347.034 197.336C346.738 197.336 346.499 197.695 346.499 198.138C346.499 198.581 346.738 198.941 347.034 198.941Z" fill="#F4511E"/>
<path d="M346.499 204.823C346.794 204.823 347.034 204.464 347.034 204.021C347.034 203.578 346.794 203.219 346.499 203.219C346.203 203.219 345.964 203.578 345.964 204.021C345.964 204.464 346.203 204.823 346.499 204.823Z" fill="#F4511E"/>
<path d="M340.081 202.149C340.376 202.149 340.616 201.79 340.616 201.347C340.616 200.904 340.376 200.545 340.081 200.545C339.785 200.545 339.546 200.904 339.546 201.347C339.546 201.79 339.785 202.149 340.081 202.149Z" fill="#F4511E"/>
<path d="M360.941 185.036C365.667 185.036 369.498 181.205 369.498 176.48C369.498 171.754 365.667 167.923 360.941 167.923C356.214 167.923 352.383 171.754 352.383 176.48C352.383 181.205 356.214 185.036 360.941 185.036Z" fill="#F4511E"/>
<path opacity="0.2" d="M367.359 177.014C367.359 178.716 366.683 180.349 365.479 181.552C364.276 182.756 362.643 183.432 360.941 183.432C359.239 183.432 357.606 182.756 356.402 181.552C355.199 180.349 354.522 178.716 354.522 177.014" fill="#121212"/>
<path opacity="0.2" d="M354.522 175.945C354.522 174.243 355.199 172.61 356.402 171.407C357.606 170.203 359.239 169.527 360.941 169.527C362.643 169.527 364.276 170.203 365.479 171.407C366.683 172.61 367.359 174.243 367.359 175.945" fill="#121212"/>
<path d="M357.731 174.34C358.027 174.34 358.266 173.981 358.266 173.538C358.266 173.095 358.027 172.736 357.731 172.736C357.436 172.736 357.196 173.095 357.196 173.538C357.196 173.981 357.436 174.34 357.731 174.34Z" fill="#F4511E"/>
<path d="M360.94 173.271C361.236 173.271 361.475 172.912 361.475 172.469C361.475 172.026 361.236 171.667 360.94 171.667C360.645 171.667 360.405 172.026 360.405 172.469C360.405 172.912 360.645 173.271 360.94 173.271Z" fill="#F4511E"/>
<path d="M360.94 180.223C361.236 180.223 361.475 179.864 361.475 179.421C361.475 178.978 361.236 178.619 360.94 178.619C360.645 178.619 360.405 178.978 360.405 179.421C360.405 179.864 360.645 180.223 360.94 180.223Z" fill="#F4511E"/>
<path d="M364.149 175.945C364.445 175.945 364.684 175.586 364.684 175.143C364.684 174.699 364.445 174.34 364.149 174.34C363.854 174.34 363.614 174.699 363.614 175.143C363.614 175.586 363.854 175.945 364.149 175.945Z" fill="#F4511E"/>
<path d="M363.615 181.827C363.91 181.827 364.15 181.468 364.15 181.025C364.15 180.582 363.91 180.223 363.615 180.223C363.32 180.223 363.08 180.582 363.08 181.025C363.08 181.468 363.32 181.827 363.615 181.827Z" fill="#F4511E"/>
<path d="M357.196 179.153C357.491 179.153 357.731 178.794 357.731 178.351C357.731 177.908 357.491 177.549 357.196 177.549C356.901 177.549 356.661 177.908 356.661 178.351C356.661 178.794 356.901 179.153 357.196 179.153Z" fill="#F4511E"/>
<path d="M378.056 196.801C382.782 196.801 386.614 192.97 386.614 188.245C386.614 183.519 382.782 179.688 378.056 179.688C373.329 179.688 369.498 183.519 369.498 188.245C369.498 192.97 373.329 196.801 378.056 196.801Z" fill="#FFA726" fill-opacity="0.5"/>
<path opacity="0.2" d="M384.474 188.78C384.474 190.482 383.798 192.114 382.595 193.317C381.391 194.521 379.758 195.197 378.056 195.197C376.354 195.197 374.721 194.521 373.518 193.317C372.314 192.114 371.638 190.482 371.638 188.78" fill="#121212"/>
<path opacity="0.2" d="M371.638 187.71C371.638 186.008 372.314 184.376 373.518 183.172C374.721 181.969 376.354 181.293 378.056 181.293C379.758 181.293 381.391 181.969 382.595 183.172C383.798 184.376 384.474 186.008 384.474 187.71" fill="#121212"/>
<path d="M374.846 186.106C375.142 186.106 375.381 185.747 375.381 185.304C375.381 184.86 375.142 184.501 374.846 184.501C374.551 184.501 374.312 184.86 374.312 185.304C374.312 185.747 374.551 186.106 374.846 186.106Z" fill="#FFA726" fill-opacity="0.5"/>
<path d="M378.056 185.036C378.352 185.036 378.591 184.677 378.591 184.234C378.591 183.791 378.352 183.432 378.056 183.432C377.761 183.432 377.521 183.791 377.521 184.234C377.521 184.677 377.761 185.036 378.056 185.036Z" fill="#FFA726" fill-opacity="0.5"/>
<path d="M378.056 191.988C378.352 191.988 378.591 191.629 378.591 191.186C378.591 190.743 378.352 190.384 378.056 190.384C377.761 190.384 377.521 190.743 377.521 191.186C377.521 191.629 377.761 191.988 378.056 191.988Z" fill="#FFA726" fill-opacity="0.5"/>
<path d="M381.265 187.71C381.561 187.71 381.8 187.351 381.8 186.908C381.8 186.465 381.561 186.106 381.265 186.106C380.97 186.106 380.73 186.465 380.73 186.908C380.73 187.351 380.97 187.71 381.265 187.71Z" fill="#FFA726" fill-opacity="0.5"/>
<path d="M380.73 193.593C381.026 193.593 381.265 193.233 381.265 192.79C381.265 192.347 381.026 191.988 380.73 191.988C380.435 191.988 380.195 192.347 380.195 192.79C380.195 193.233 380.435 193.593 380.73 193.593Z" fill="#FFA726" fill-opacity="0.5"/>
<path d="M374.312 190.919C374.608 190.919 374.847 190.56 374.847 190.117C374.847 189.674 374.608 189.314 374.312 189.314C374.017 189.314 373.777 189.674 373.777 190.117C373.777 190.56 374.017 190.919 374.312 190.919Z" fill="#FFA726" fill-opacity="0.5"/>
<path d="M335.267 197.871C339.993 197.871 343.825 194.04 343.825 189.314C343.825 184.589 339.993 180.758 335.267 180.758C330.54 180.758 326.709 184.589 326.709 189.314C326.709 194.04 330.54 197.871 335.267 197.871Z" fill="#FFA726" fill-opacity="0.5"/>
<path opacity="0.2" d="M341.685 189.849C341.685 191.551 341.009 193.183 339.805 194.387C338.602 195.59 336.969 196.267 335.267 196.267C333.565 196.267 331.932 195.59 330.729 194.387C329.525 193.183 328.849 191.551 328.849 189.849" fill="#121212"/>
<path opacity="0.2" d="M328.849 188.78C328.849 187.078 329.525 185.445 330.729 184.242C331.932 183.038 333.565 182.362 335.267 182.362C336.969 182.362 338.602 183.038 339.805 184.242C341.009 185.445 341.685 187.078 341.685 188.78" fill="#121212"/>
<path d="M332.058 187.175C332.354 187.175 332.593 186.816 332.593 186.373C332.593 185.93 332.354 185.571 332.058 185.571C331.763 185.571 331.523 185.93 331.523 186.373C331.523 186.816 331.763 187.175 332.058 187.175Z" fill="#FFA726" fill-opacity="0.5"/>
<path d="M335.267 186.106C335.563 186.106 335.802 185.747 335.802 185.304C335.802 184.86 335.563 184.501 335.267 184.501C334.972 184.501 334.732 184.86 334.732 185.304C334.732 185.747 334.972 186.106 335.267 186.106Z" fill="#FFA726" fill-opacity="0.5"/>
<path d="M335.267 193.058C335.563 193.058 335.802 192.699 335.802 192.256C335.802 191.813 335.563 191.453 335.267 191.453C334.972 191.453 334.732 191.813 334.732 192.256C334.732 192.699 334.972 193.058 335.267 193.058Z" fill="#FFA726" fill-opacity="0.5"/>
<path d="M338.476 188.78C338.772 188.78 339.011 188.421 339.011 187.977C339.011 187.534 338.772 187.175 338.476 187.175C338.181 187.175 337.941 187.534 337.941 187.977C337.941 188.421 338.181 188.78 338.476 188.78Z" fill="#FFA726" fill-opacity="0.5"/>
<path d="M337.941 194.662C338.237 194.662 338.476 194.303 338.476 193.86C338.476 193.417 338.237 193.058 337.941 193.058C337.646 193.058 337.406 193.417 337.406 193.86C337.406 194.303 337.646 194.662 337.941 194.662Z" fill="#FFA726" fill-opacity="0.5"/>
<path d="M331.523 191.988C331.819 191.988 332.058 191.629 332.058 191.186C332.058 190.743 331.819 190.384 331.523 190.384C331.228 190.384 330.988 190.743 330.988 191.186C330.988 191.629 331.228 191.988 331.523 191.988Z" fill="#FFA726" fill-opacity="0.5"/>
<path d="M354.522 201.615C359.248 201.615 363.079 197.784 363.079 193.058C363.079 188.332 359.248 184.501 354.522 184.501C349.795 184.501 345.964 188.332 345.964 193.058C345.964 197.784 349.795 201.615 354.522 201.615Z" fill="#FFA726" fill-opacity="0.5"/>
<path opacity="0.2" d="M360.94 193.593C360.94 194.435 360.774 195.27 360.452 196.048C360.129 196.827 359.656 197.535 359.06 198.13C358.464 198.726 357.757 199.199 356.978 199.522C356.199 199.844 355.365 200.01 354.522 200.01C353.679 200.01 352.844 199.844 352.066 199.522C351.287 199.199 350.579 198.726 349.983 198.13C349.387 197.535 348.915 196.827 348.592 196.048C348.27 195.27 348.104 194.435 348.104 193.593" fill="#121212"/>
<path opacity="0.2" d="M348.104 192.523C348.104 191.68 348.27 190.846 348.592 190.067C348.915 189.289 349.387 188.581 349.983 187.985C350.579 187.389 351.287 186.917 352.066 186.594C352.844 186.272 353.679 186.106 354.522 186.106C355.365 186.106 356.199 186.272 356.978 186.594C357.757 186.917 358.464 187.389 359.06 187.985C359.656 188.581 360.129 189.289 360.452 190.067C360.774 190.846 360.94 191.68 360.94 192.523" fill="#121212"/>
<path d="M351.313 190.919C351.609 190.919 351.848 190.56 351.848 190.117C351.848 189.674 351.609 189.314 351.313 189.314C351.018 189.314 350.778 189.674 350.778 190.117C350.778 190.56 351.018 190.919 351.313 190.919Z" fill="#FFA726" fill-opacity="0.5"/>
<path d="M354.522 189.849C354.818 189.849 355.057 189.49 355.057 189.047C355.057 188.604 354.818 188.245 354.522 188.245C354.227 188.245 353.987 188.604 353.987 189.047C353.987 189.49 354.227 189.849 354.522 189.849Z" fill="#FFA726" fill-opacity="0.5"/>
<path d="M354.522 196.801C354.818 196.801 355.057 196.442 355.057 195.999C355.057 195.556 354.818 195.197 354.522 195.197C354.227 195.197 353.987 195.556 353.987 195.999C353.987 196.442 354.227 196.801 354.522 196.801Z" fill="#FFA726" fill-opacity="0.5"/>
<path d="M357.731 192.523C358.027 192.523 358.266 192.164 358.266 191.721C358.266 191.278 358.027 190.919 357.731 190.919C357.436 190.919 357.196 191.278 357.196 191.721C357.196 192.164 357.436 192.523 357.731 192.523Z" fill="#FFA726" fill-opacity="0.5"/>
<path d="M357.196 198.406C357.491 198.406 357.731 198.047 357.731 197.604C357.731 197.161 357.491 196.801 357.196 196.801C356.901 196.801 356.661 197.161 356.661 197.604C356.661 198.047 356.901 198.406 357.196 198.406Z" fill="#FFA726" fill-opacity="0.5"/>
<path d="M350.778 195.732C351.073 195.732 351.313 195.373 351.313 194.93C351.313 194.487 351.073 194.127 350.778 194.127C350.483 194.127 350.243 194.487 350.243 194.93C350.243 195.373 350.483 195.732 350.778 195.732Z" fill="#FFA726" fill-opacity="0.5"/>
<path d="M367.894 210.706C372.62 210.706 376.452 206.875 376.452 202.149C376.452 197.424 372.62 193.593 367.894 193.593C363.167 193.593 359.336 197.424 359.336 202.149C359.336 206.875 363.167 210.706 367.894 210.706Z" fill="#F4511E"/>
<path opacity="0.2" d="M374.312 202.684C374.312 204.386 373.636 206.018 372.432 207.222C371.229 208.425 369.596 209.102 367.894 209.102C366.192 209.102 364.559 208.425 363.355 207.222C362.152 206.018 361.476 204.386 361.476 202.684" fill="#121212"/>
<path opacity="0.2" d="M361.476 201.614C361.476 199.912 362.152 198.28 363.355 197.077C364.559 195.873 366.192 195.197 367.894 195.197C369.596 195.197 371.229 195.873 372.432 197.077C373.636 198.28 374.312 199.912 374.312 201.614" fill="#121212"/>
<path d="M364.684 200.01C364.98 200.01 365.219 199.651 365.219 199.208C365.219 198.765 364.98 198.406 364.684 198.406C364.389 198.406 364.149 198.765 364.149 199.208C364.149 199.651 364.389 200.01 364.684 200.01Z" fill="#F4511E"/>
<path d="M367.893 198.941C368.189 198.941 368.428 198.581 368.428 198.138C368.428 197.695 368.189 197.336 367.893 197.336C367.598 197.336 367.358 197.695 367.358 198.138C367.358 198.581 367.598 198.941 367.893 198.941Z" fill="#F4511E"/>
<path d="M367.893 205.893C368.189 205.893 368.428 205.534 368.428 205.091C368.428 204.648 368.189 204.288 367.893 204.288C367.598 204.288 367.358 204.648 367.358 205.091C367.358 205.534 367.598 205.893 367.893 205.893Z" fill="#F4511E"/>
<path d="M371.103 201.614C371.399 201.614 371.638 201.255 371.638 200.812C371.638 200.369 371.399 200.01 371.103 200.01C370.808 200.01 370.568 200.369 370.568 200.812C370.568 201.255 370.808 201.614 371.103 201.614Z" fill="#F4511E"/>
<path d="M370.568 207.497C370.863 207.497 371.103 207.138 371.103 206.695C371.103 206.252 370.863 205.893 370.568 205.893C370.273 205.893 370.033 206.252 370.033 206.695C370.033 207.138 370.273 207.497 370.568 207.497Z" fill="#F4511E"/>
<path d="M364.149 204.823C364.445 204.823 364.684 204.464 364.684 204.021C364.684 203.578 364.445 203.219 364.149 203.219C363.854 203.219 363.614 203.578 363.614 204.021C363.614 204.464 363.854 204.823 364.149 204.823Z" fill="#F4511E"/>
<path d="M257.841 171.795C259.093 171.795 260.109 170.78 260.109 169.527C260.109 168.275 259.093 167.259 257.841 167.259C256.588 167.259 255.572 168.275 255.572 169.527C255.572 170.78 256.588 171.795 257.841 171.795Z" fill="#FFA726" fill-opacity="0.5"/>
<path d="M319.499 251.851L265.021 236.745L267.108 228.994L321.586 244.101L319.499 251.851Z" fill="#388E3C"/>
<path d="M311.513 249.26C292.857 252.831 273.694 252.831 255.038 249.26V241.226C273.735 244.324 292.815 244.324 311.513 241.226V249.26Z" fill="#388E3C"/>
<path d="M317.318 225.158C298.663 228.728 279.499 228.728 260.844 225.158V217.123C279.541 220.222 298.621 220.222 317.318 217.123V225.158Z" fill="#388E3C"/>
<path d="M336.847 234.799C318.191 238.37 299.028 238.37 280.372 234.799V226.764C299.069 229.863 318.149 229.863 336.847 226.764V234.799Z" fill="#388E3C"/>
<path d="M341.597 243.904C322.941 247.475 303.778 247.475 285.122 243.904V235.87C303.819 238.968 322.899 238.968 341.597 235.87V243.904Z" fill="#388E3C"/>
<path d="M358.158 255.802L302.441 265.16L301.148 257.233L356.865 247.876L358.158 255.802Z" fill="#388E3C"/>
<path d="M349.835 256.832C334.388 267.966 316.978 276.085 298.52 280.763L295.214 273.462C313.511 268.34 330.845 260.256 346.53 249.532L349.835 256.832Z" fill="#388E3C"/>
<path d="M345.194 232.471C329.746 243.605 312.337 251.723 293.878 256.402L290.572 249.101C308.869 243.979 326.204 235.895 341.888 225.171L345.194 232.471Z" fill="#388E3C"/>
<path d="M366.905 232.957C351.457 244.09 334.048 252.209 315.589 256.887L312.283 249.587C330.58 244.464 347.915 236.38 363.599 225.656L366.905 232.957Z" fill="#388E3C"/>
<path d="M374.968 239.217C359.521 250.351 342.111 258.47 323.652 263.148L320.347 255.848C338.644 250.725 355.978 242.641 371.662 231.917L374.968 239.217Z" fill="#388E3C"/>
<path d="M307.455 223.541H304.78V226.215H307.455V223.541Z" fill="#388E3C"/>
<path d="M315.477 270.067H312.803V272.741H315.477V270.067Z" fill="#388E3C"/>
<path d="M272.688 223.541H270.014V226.215H272.688V223.541Z" fill="#388E3C"/>
<path d="M334.732 256.698H332.058V259.371H334.732V256.698Z" fill="#388E3C"/>
<path d="M336.336 241.189H333.662V243.863H336.336V241.189Z" fill="#388E3C"/>
<path d="M292.221 233.868L289.123 231.766L287.922 233.536L291.02 235.638L292.221 233.868Z" fill="#388E3C"/>
<path d="M323.778 239.75L320.68 237.648L319.479 239.418L322.577 241.52L323.778 239.75Z" fill="#388E3C"/>
<path d="M285.267 249.911L282.169 247.809L280.968 249.579L284.066 251.681L285.267 249.911Z" fill="#388E3C"/>
<path d="M304.881 249.756L306.983 246.658L305.213 245.457L303.111 248.555L304.881 249.756Z" fill="#388E3C"/>
<path d="M319.323 253.499L321.425 250.401L319.654 249.2L317.552 252.298L319.323 253.499Z" fill="#388E3C"/>
<path d="M357.836 240.663L359.938 237.566L358.168 236.365L356.066 239.462L357.836 240.663Z" fill="#388E3C"/>
<path d="M611 332.458H0V334H611V332.458Z" fill="#FFA726" fill-opacity="0.5"/>
</svg>
